<?xml version="1.0" encoding="UTF-8"?>
<svg id="Layer_2" data-name="Layer 2" xmlns="http://www.w3.org/2000/svg" viewBox="0 0 89.24 64.27">
  <defs>
    <style>
      .cls-1 {
        fill: #6c36f6;
      }

      .cls-2 {
        fill: #49c6e4;
      }
    </style>
  </defs>
  <g id="Geometrica-Shapes">
    <g>
      <g>
        <path class="cls-2" d="M1.31,21.52c-.45-.23-.88-.45-1.31-.66l1.33-2.69c.44.22.9.45,1.36.69l-1.38,2.66Z"/>
        <path class="cls-2" d="M15.34,31.41c-.69-.65-1.4-1.29-2.13-1.91l1.95-2.28c.77.65,1.52,1.33,2.25,2.01l-2.06,2.18ZM10.98,27.69c-.75-.58-1.52-1.15-2.31-1.7l1.72-2.46c.82.58,1.64,1.18,2.42,1.79l-1.84,2.37ZM6.28,24.39c-.83-.53-1.66-1.03-2.46-1.49l1.5-2.6c.84.48,1.7,1,2.57,1.56l-1.61,2.53Z"/>
        <path class="cls-2" d="M18.38,34.5c-.33-.36-.66-.72-1-1.07l2.17-2.07c.35.37.7.74,1.05,1.13l-2.22,2.02Z"/>
      </g>
      <g>
        <path class="cls-2" d="M72.13,18.06l-.98-2.83c.97-.33,1.51-.49,1.51-.49l.81,2.89s-.5.14-1.34.43Z"/>
        <path class="cls-2" d="M48.98,32.55l-2.12-2.12c.68-.68,1.38-1.35,2.1-1.99l2.01,2.22c-.68.61-1.35,1.25-1.99,1.89ZM53.05,28.86l-1.91-2.32c.76-.62,1.51-1.22,2.27-1.78l1.8,2.4c-.72.54-1.44,1.11-2.16,1.7ZM57.45,25.55l-1.69-2.48c.82-.56,1.62-1.08,2.42-1.58l1.58,2.55c-.76.47-1.53.97-2.31,1.51ZM62.13,22.64l-1.48-2.61c.88-.5,1.72-.95,2.54-1.37l1.37,2.67c-.78.4-1.59.83-2.43,1.31ZM67.04,20.12l-1.26-2.72c.96-.44,1.85-.83,2.65-1.15l1.13,2.78c-.76.31-1.61.67-2.53,1.1Z"/>
        <path class="cls-2" d="M46.12,35.63l-2.28-1.95c.34-.39.68-.78,1.02-1.16l2.22,2.01c-.32.36-.65.72-.96,1.1Z"/>
      </g>
      <path class="cls-1" d="M33.19,64.27l-.09-3c.91-.03,1.83-.14,2.71-.33l.64,2.93c-1.07.23-2.17.37-3.27.4ZM29.91,64.07c-1.09-.17-2.16-.44-3.19-.8l1-2.83c.86.3,1.75.53,2.65.66l-.46,2.96ZM39.59,62.87l-1.17-2.76c.84-.36,1.65-.79,2.41-1.3l1.66,2.5c-.91.6-1.89,1.13-2.9,1.56ZM23.72,61.89c-.95-.55-1.85-1.19-2.68-1.9l1.95-2.28c.69.59,1.44,1.13,2.23,1.58l-1.5,2.6ZM45.06,59.25l-2.09-2.15c.66-.64,1.26-1.34,1.79-2.08l2.45,1.74c-.63.89-1.35,1.73-2.14,2.49ZM18.75,57.63c-.69-.85-1.3-1.77-1.82-2.74l2.64-1.43c.43.8.94,1.57,1.52,2.28l-2.34,1.88ZM48.85,53.91l-2.72-1.26c.38-.82.69-1.69.91-2.58l2.91.73c-.27,1.07-.64,2.11-1.09,3.11ZM15.64,51.86c-.33-1.04-.57-2.12-.71-3.21l2.98-.37c.11.91.31,1.8.59,2.67l-2.86.91ZM50.45,47.55l-2.99-.18c.02-.32.03-.63.03-.95,0-.6-.04-1.21-.11-1.79l2.98-.36c.09.71.13,1.43.13,2.16,0,.37-.01.75-.04,1.13ZM17.83,45.48l-3-.11v-.12c.08-1.06.25-2.16.52-3.21l2.91.73c-.22.88-.37,1.79-.42,2.71ZM46.79,41.96c-.28-.87-.63-1.72-1.07-2.52l2.64-1.42c.52.97.95,1.99,1.28,3.03l-2.86.91ZM19.17,40.2l-2.72-1.26c.46-.99,1.02-1.95,1.66-2.84l2.44,1.74c-.53.75-.99,1.54-1.38,2.37ZM44.22,37.15c-.57-.71-1.21-1.37-1.9-1.97l1.96-2.27c.83.71,1.6,1.51,2.29,2.36l-2.34,1.88ZM22.34,35.76l-2.08-2.16c.79-.76,1.65-1.45,2.57-2.06l1.65,2.5c-.76.5-1.48,1.08-2.14,1.71ZM40.08,33.6c-.79-.46-1.62-.84-2.48-1.15l1-2.83c1.04.37,2.04.83,2.99,1.38l-1.51,2.59ZM26.89,32.76l-1.17-2.76c1.01-.43,2.07-.76,3.14-.99l.63,2.93c-.89.19-1.77.47-2.61.82ZM34.94,31.78c-.44-.07-.89-.12-1.34-.15-.46-.03-.93-.04-1.39-.03l-.08-3c.55-.02,1.1,0,1.66.03.55.04,1.09.1,1.62.18l-.47,2.96Z"/>
      <circle class="cls-1" cx="72.9" cy="16.34" r="16.34"/>
    </g>
  </g>
</svg>