<?xml version="1.0" encoding="UTF-8"?>
<svg id="Layer_2" data-name="Layer 2" xmlns="http://www.w3.org/2000/svg" viewBox="0 0 56 56">
  <defs>
    <style>
      .cls-1 {
        fill: #6c36f6;
      }

      .cls-2 {
        fill: #49c6e4;
      }
    </style>
  </defs>
  <g id="Geometrica-Shapes">
    <g>
      <path class="cls-2" d="M15.04,28h0c-2.6,0-5.04-.66-7.17-1.82,2.13,1.16,4.57,1.82,7.17,1.82Z"/>
      <path class="cls-2" d="M26.5,29.6v17.38c-3.75-11.04-14.19-18.98-26.5-18.98,0,14.96,11.73,27.18,26.5,27.95v.04h3v-.04c14.78-.78,26.5-12.99,26.5-27.95-12.29,0-22.73,7.92-26.5,18.93v-17.41l-3,.06Z"/>
      <path class="cls-1" d="M4.4,23.6c-.68-.68-1.3-1.43-1.84-2.23.54.8,1.16,1.55,1.84,2.23Z"/>
      <path class="cls-1" d="M55.32,17.43c-.29.94-.68,1.84-1.14,2.7.46-.85.85-1.75,1.14-2.7Z"/>
      <path class="cls-1" d="M51.6,23.6c-1.7,1.7-3.81,3-6.16,3.73,2.35-.73,4.46-2.03,6.16-3.73Z"/>
      <path class="cls-1" d="M54.19,20.13c-.69,1.28-1.57,2.45-2.59,3.47,1.02-1.02,1.9-2.19,2.59-3.47Z"/>
      <path class="cls-1" d="M40.96,28c1.56,0,3.06-.24,4.47-.68,2.35-.73,4.46-2.03,6.16-3.73,1.02-1.02,1.9-2.19,2.59-3.47.46-.85.85-1.75,1.14-2.7.44-1.41.68-2.91.68-4.47V0h-12.96c-8.31,0-15.04,6.73-15.04,15.04C28,6.73,21.27,0,12.96,0H0v12.96c0,3.11.95,6.01,2.57,8.41.54.8,1.16,1.55,1.84,2.23,1.02,1.02,2.19,1.9,3.47,2.59,2.13,1.16,4.57,1.82,7.17,1.82h25.92Z"/>
    </g>
  </g>
</svg>