<?xml version="1.0" encoding="UTF-8"?>
<svg id="Layer_2" xmlns="http://www.w3.org/2000/svg" version="1.1" viewBox="0 0 24.4 19.9">
  <!-- Generator: Adobe Illustrator 30.1.0, SVG Export Plug-In . SVG Version: 2.1.1 Build 136)  -->
  <defs>
    <style>
      .st0 {
        fill: #e97601;
      }

      .st1 {
        fill: #fefefe;
      }

      .st2 {
        fill: #265787;
      }
    </style>
  </defs>
  <g id="Geometrica-Shapes">
    <g id="bfFpsZ">
      <g>
        <path class="st0" d="M2.7,15.8c-.4.4-1,.5-1.6.4-.7-.1-1.2-.7-1.1-1.5,0-.5.3-.9.7-1.3l8.9-6.8h-4.9c-.3,0-.6,0-.8-.2-.3-.2-.5-.6-.4-1,0-.2.2-.4.4-.6.4-.3.8-.5,1.3-.5h9.7s-3.2-2.6-3.2-2.6c-.3-.3-.4-.7-.2-1.1.4-.6,1.6-.8,2.1-.4l7.7,5.9c1,.7,1.7,1.7,2.3,2.8,1,2.1.9,4.4-.2,6.4-1.4,2.6-4.1,4.1-7,4.3-1.5,0-3-.2-4.3-.8-1.8-.8-3.3-2.3-4.1-4.1-.3-.7-.5-1.4-.5-2.1,0-.3,0-.5,0-.8l-4.8,3.9h0ZM20.1,14c1.2-1.6,1.2-3.7,0-5.3-1.5-2-4.4-2.6-6.6-1.5-.8.4-1.5,1-2.1,1.7-1,1.5-1,3.5,0,4.9.6.8,1.4,1.4,2.4,1.8,2.2.8,4.7.2,6.2-1.7h0Z"/>
        <path class="st1" d="M20.1,14c-1.4,1.9-4,2.5-6.2,1.7-1-.4-1.8-1-2.4-1.8-1.1-1.5-1.1-3.4,0-4.9.5-.8,1.2-1.4,2.1-1.7,2.3-1.1,5.1-.5,6.6,1.5,1.2,1.6,1.2,3.7,0,5.3h0ZM18.7,12.7c.6-.9.6-2.1,0-3.1-.3-.5-.8-.9-1.3-1.1-1.5-.7-3.3-.3-4.2,1.1-.7.9-.7,2.2,0,3.1.3.5.8.9,1.3,1.1,1.5.7,3.4.2,4.3-1.1Z"/>
        <path class="st2" d="M18.7,12.7c-.9,1.4-2.8,1.8-4.3,1.1-.6-.3-1-.6-1.3-1.1-.6-1-.6-2.2,0-3.1.9-1.3,2.8-1.7,4.2-1.1.5.2,1,.6,1.3,1.1.6.9.6,2.1,0,3.1Z"/>
      </g>
    </g>
  </g>
</svg>