<?xml version="1.0" encoding="UTF-8"?>
<svg id="Layer_2" data-name="Layer 2" xmlns="http://www.w3.org/2000/svg" viewBox="0 0 71.86 58.34">
  <defs>
    <style>
      .cls-1 {
        fill: #e97601;
      }

      .cls-2 {
        fill: #fefefe;
      }

      .cls-3 {
        fill: #265787;
      }
    </style>
  </defs>
  <g id="Geometrica-Shapes">
    <g id="bfFpsZ">
      <g>
        <path class="cls-1" d="M7.89,46.79c-1.31,1.07-3.02,1.49-4.6,1.25-2.19-.33-3.55-2.21-3.25-4.38.26-1.41.96-2.8,2.16-3.72l26.2-20.06h-14.51c-.89,0-1.68-.25-2.39-.72-.98-.7-1.4-1.85-1.09-3.02.2-.73.59-1.32,1.13-1.86,1.06-.96,2.39-1.55,3.88-1.55l28.57-.04-9.43-7.69c-1.01-.83-1.16-2.18-.46-3.24,1.21-1.9,4.69-2.26,6.23-1.08l22.82,17.52c2.87,2.2,5.16,5.06,6.69,8.3,2.86,6.08,2.66,13.09-.53,19.01-4.1,7.63-12.22,12.27-20.82,12.79-4.43.26-8.82-.51-12.84-2.35-5.39-2.46-9.86-6.76-12.17-12.24-.85-2.01-1.34-4.07-1.48-6.25-.05-.77.13-1.5.14-2.3l-14.25,11.65ZM59.42,41.53c3.56-4.59,3.61-10.91.13-15.56-4.49-6-12.89-7.71-19.62-4.56-2.47,1.16-4.56,2.92-6.07,5.16-2.98,4.45-2.9,10.23.22,14.58,1.75,2.44,4.2,4.29,7.06,5.33,6.49,2.36,14.01.56,18.27-4.94Z"/>
        <path class="cls-2" d="M59.42,41.53c-4.26,5.5-11.79,7.3-18.27,4.94-2.86-1.04-5.3-2.89-7.06-5.33-3.12-4.35-3.2-10.13-.22-14.58,1.5-2.24,3.59-4,6.07-5.16,6.72-3.14,15.13-1.43,19.62,4.56,3.48,4.65,3.43,10.97-.13,15.56ZM55.29,37.52c1.84-2.79,1.81-6.34-.07-9.1-.98-1.44-2.32-2.54-3.92-3.27-4.34-1.97-9.73-.79-12.53,3.12-1.98,2.77-2.04,6.43-.16,9.27.99,1.49,2.35,2.63,3.99,3.37,4.45,2,9.98.73,12.69-3.39Z"/>
        <path class="cls-3" d="M55.29,37.52c-2.71,4.11-8.24,5.39-12.69,3.39-1.64-.74-3-1.88-3.99-3.37-1.89-2.84-1.83-6.5.16-9.27,2.8-3.91,8.19-5.09,12.53-3.12,1.6.73,2.94,1.83,3.92,3.27,1.88,2.77,1.91,6.32.07,9.1Z"/>
      </g>
    </g>
  </g>
</svg>