<?xml version="1.0" encoding="UTF-8"?>
<svg id="Layer_2" data-name="Layer 2" xmlns="http://www.w3.org/2000/svg" viewBox="0 0 1604.3 353.7">
  <defs>
    <style>
      .cls-1 {
        fill: #6c36f6;
      }

      .cls-2 {
        fill: #fff;
      }

      .cls-3 {
        opacity: .75;
      }

      .cls-4 {
        fill: #49c6e4;
      }
    </style>
  </defs>
  <g id="Layer_2-2" data-name="Layer 2">
    <g class="cls-3">
      <path class="cls-2" d="M442.41,181.69c.34-2.9.6-5.48.69-8.48h18.63c-.17,7.52-.69,14.6-1.63,22.22-12.79,2.58-25.42,3.65-38.13,3.65s-25.42-1.07-38.21-3.65c-1.12-10.63-1.72-20.61-1.72-31.24s.6-20.61,1.72-31.24c12.79-2.58,25.5-3.65,38.21-3.65s25.33.75,38.13,2.9c.95,7.94,1.46,15.25,1.63,22.98h-18.63c-.09-2.79-.34-5.48-.69-8.48-6.35-1.07-14.08-1.29-20.44-1.29s-14.17.21-20.61,1.29c-.43,6.01-.69,11.49-.69,17.5s.26,11.49.69,17.5c6.44,1.07,14.17,1.29,20.61,1.29s14.08-.21,20.44-1.29Z"/>
      <path class="cls-2" d="M513.69,199.09c-13.31,0-26.71-.86-40.1-2.9-.69-10.84-1.03-21.15-1.03-31.99s.34-21.15,1.03-31.99c13.4-2.04,26.79-2.9,40.1-2.9s26.62.86,40.02,2.9c.69,10.84,1.03,21.15,1.03,31.99s-.34,21.15-1.03,31.99c-13.4,2.04-26.71,2.9-40.02,2.9ZM492.05,181.69c7.04.86,14.6,1.29,21.64,1.29s14.51-.43,21.55-1.29c.52-6.01.77-11.49.77-17.5s-.26-11.49-.77-17.5c-7.04-.86-14.6-1.29-21.55-1.29s-14.6.43-21.64,1.29c-.52,6.01-.69,11.49-.69,17.5s.17,11.49.69,17.5Z"/>
      <path class="cls-2" d="M606.7,199.09c-13.31,0-26.71-.86-40.1-2.9-.69-10.84-1.03-21.15-1.03-31.99s.34-21.15,1.03-31.99c13.4-2.04,26.79-2.9,40.1-2.9s26.62.86,40.02,2.9c.69,10.84,1.03,21.15,1.03,31.99s-.34,21.15-1.03,31.99c-13.4,2.04-26.71,2.9-40.02,2.9ZM585.06,181.69c7.04.86,14.6,1.29,21.64,1.29s14.51-.43,21.55-1.29c.52-6.01.77-11.49.77-17.5s-.26-11.49-.77-17.5c-7.04-.86-14.6-1.29-21.55-1.29s-14.6.43-21.64,1.29c-.52,6.01-.69,11.49-.69,17.5s.17,11.49.69,17.5Z"/>
      <path class="cls-2" d="M658.83,130.38h7.04c13.74-.75,23.1-1.07,29.71-1.07,11.77,0,23.87.75,35.98,2.47,1.12,7.52,1.72,15.14,1.72,22.55s-.52,15.03-1.72,22.55c-12.02,1.29-24.22,1.82-36.07,1.82-4.47,0-10.48,0-18.72-.21v19.54h-17.95v-67.64ZM714.14,163.55c.34-3.11.51-6.01.51-9.23,0-3.01-.17-6.12-.51-9.23-4.21-.43-13.4-.64-18.64-.64-7.21,0-12.62.21-18.63.64h-.09v18.68l.09-.11c6.01.54,11.42.64,18.63.64s12.62-.21,18.64-.75Z"/>
      <path class="cls-2" d="M797.1,170.1h-38.39v12.13c8.93,1.07,18.64,1.29,27.57,1.29s19.58-.21,28.6-1.29v15.57c-12.19.86-23.7,1.29-35.64,1.29-12.79,0-25.93-.43-38.56-1.29v-67.21c13.4-.86,27.48-1.29,40.96-1.29,10.99,0,21.73.43,32.98,1.29v15.57c-9.53-1.07-21.13-1.29-30.57-1.29-8.33,0-17.18.21-25.33,1.07v12.56h38.3l.09,11.59Z"/>
      <path class="cls-2" d="M859.28,164.62c8.76,0,16.14,0,23.62-.54.43-3.22.6-6.44.6-9.77s-.17-6.01-.52-9.23c-6.78-.75-12.97-1.18-20.78-1.18-6.87,0-13.48.21-20.27.86l-.09,53.25h-17.86v-67.64c12.71-.86,25.5-1.07,38.3-1.07,11.42,0,26.36.32,38.04,3.22.95,6.76,1.63,13.31,1.63,20.08,0,8.05-.17,16.32-1.63,24.91-5.07.32-10.48.54-16.06.75l19.24,19.75h-22.59l-30.92-31.35v-2.04h9.27Z"/>
      <path class="cls-2" d="M968.95,155.39h44.74v-25.02h18.03v67.64h-18.03v-25.66h-44.74v25.66h-17.95v-67.64h17.95v25.02Z"/>
      <path class="cls-2" d="M1104.13,130.59l24.48,67.42h-17.95l-4.72-12.78h-44.4l-4.72,12.78h-18.03l24.56-67.42c7.39-.75,13.57-.97,20.35-.97s12.97.21,20.44.97ZM1075.96,146.16l-8.85,23.83h33.15l-8.84-23.83c-1.63-.32-5.41-.43-7.73-.43s-6.01.11-7.73.43Z"/>
      <path class="cls-2" d="M1170.94,164.62c8.76,0,16.14,0,23.62-.54.43-3.22.6-6.44.6-9.77s-.17-6.01-.52-9.23c-6.78-.75-12.97-1.18-20.78-1.18-6.87,0-13.48.21-20.27.86l-.09,53.25h-17.86v-67.64c12.71-.86,25.5-1.07,38.3-1.07,11.42,0,26.36.32,38.04,3.22.95,6.76,1.63,13.31,1.63,20.08,0,8.05-.17,16.32-1.63,24.91-5.07.32-10.48.54-16.06.75l19.24,19.75h-22.59l-30.92-31.35v-2.04h9.27Z"/>
      <path class="cls-2" d="M1260.69,164.62c8.76,0,16.14,0,23.62-.54.43-3.22.6-6.44.6-9.77s-.17-6.01-.52-9.23c-6.78-.75-12.97-1.18-20.78-1.18-6.87,0-13.48.21-20.27.86l-.09,53.25h-17.86v-67.64c12.71-.86,25.5-1.07,38.3-1.07,11.42,0,26.36.32,38.04,3.22.95,6.76,1.63,13.31,1.63,20.08,0,8.05-.17,16.32-1.63,24.91-5.07.32-10.48.54-16.06.75l19.24,19.75h-22.59l-30.92-31.35v-2.04h9.27Z"/>
      <path class="cls-2" d="M1333.18,198.01h-18.03v-67.64h18.03v67.64Z"/>
      <path class="cls-2" d="M1345.2,167.42c-1.03-6.12-1.46-11.38-1.46-17.29,0-6.55.43-11.92,1.46-18.36,12.2-1.72,24.3-2.47,36.24-2.47s24.3.43,36.58,1.61v14.17c-9.02-.54-17.69-1.18-28.94-1.18-10.56,0-18.72.54-27.31,1.29-.26,1.61-.34,3.22-.34,4.94,0,1.61.08,3.11.34,4.72,18.64,1.4,37.53.75,56.68,5.15.94,6.33,1.46,11.49,1.46,17.82s-.43,12.24-1.46,18.79c-12.37,1.72-24.56,2.47-36.75,2.47s-24.3-.43-36.5-1.61v-14.17c9.1.64,18.12,1.18,29.71,1.18,10.56,0,18.81-.54,26.79-1.29.17-1.61.34-3.44.34-5.48,0-1.83-.09-3.54-.34-5.37-18.89-1.07-37.36-.97-56.51-4.94Z"/>
      <path class="cls-2" d="M1471.7,199.09c-13.31,0-26.71-.86-40.1-2.9-.69-10.84-1.03-21.15-1.03-31.99s.34-21.15,1.03-31.99c13.4-2.04,26.79-2.9,40.1-2.9s26.62.86,40.02,2.9c.69,10.84,1.03,21.15,1.03,31.99s-.34,21.15-1.03,31.99c-13.4,2.04-26.71,2.9-40.02,2.9ZM1450.06,181.69c7.04.86,14.6,1.29,21.64,1.29s14.51-.43,21.55-1.29c.52-6.01.77-11.49.77-17.5s-.26-11.49-.77-17.5c-7.04-.86-14.6-1.29-21.55-1.29s-14.6.43-21.64,1.29c-.52,6.01-.69,11.49-.69,17.5s.17,11.49.69,17.5Z"/>
      <path class="cls-2" d="M1604.3,198.01h-18.03v-.11l-37.79-50.89c-2.4-.21-4.29-.21-6.61-.21v51.21h-18.03v-67.64h2.32c10.48,0,20.61.32,33.23,1.18l26.88,37.79v-38.97h18.03v67.64Z"/>
    </g>
    <g>
      <path class="cls-1" d="M64.6,230.21l62.01,36.73c.92.54,2.05.86,2.62.74,1.01-.22,1.6-1.67,1.6-3.06l.19-56.57,50.44-.14.2,132.36-20.91,13.42L0,259.04.02,90.87,156.86,0l24.73,13.58.03,132.83-50.58.24-.23-58.76c.89-.83-.83-5.59-2.04-4.89l-64.15,37.15-.03,110.07Z"/>
      <path class="cls-4" d="M311.27,256.2l-31.36,20.59c-10.61,6.97-20.7,13.74-32.85,20.69V49.5s64.15,35.06,64.15,35.06l.07,171.64Z"/>
    </g>
  </g>
</svg>