<?xml version="1.0" encoding="UTF-8"?>
<svg id="Layer_1" data-name="Layer 1" xmlns="http://www.w3.org/2000/svg" viewBox="0 0 24 24">
  <defs>
    <style>
      .cls-1 {
        fill: #36697f;
      }

      .cls-2 {
        fill: #37a5cc;
      }

      .cls-3 {
        fill: #fff;
      }

      .cls-4 {
        fill: #7dc6dd;
      }
    </style>
  </defs>
  <path class="cls-4" d="M4.7,6.46c.81-.49,1.62-.98,2.43-1.46,0,3.73,0,7.46,0,11.19-.37.23-.74.45-1.11.67-.44.26-.88.53-1.32.79,0-3.73,0-7.47,0-11.2h0Z"/>
  <path class="cls-2" d="M7.13,5c3.54,0,7.08,0,10.62,0,.44-.03.85.35.85.79,0,.58,0,1.16,0,1.74,0,2.89,0,5.78,0,8.67-3.82,0-7.65,0-11.47,0,0-3.73,0-7.46,0-11.19M9.65,7.5c0,2.07,0,4.14,0,6.21h1.34c0-1.37,0-2.74,0-4.11.38,1.37.72,2.74,1.09,4.11.49,0,.97,0,1.46,0,.35-1.31.69-2.63,1.04-3.94,0,1.31,0,2.62,0,3.94.49,0,.99,0,1.48,0,0-2.07,0-4.14,0-6.21-.63,0-1.27,0-1.9,0-.43,1.65-.87,3.3-1.31,4.95-.42-1.65-.83-3.3-1.25-4.95-.65,0-1.31,0-1.96,0h0Z"/>
  <path class="cls-3" d="M9.65,7.5c.65,0,1.31,0,1.96,0,.42,1.65.82,3.3,1.25,4.95.44-1.65.87-3.3,1.31-4.95.63,0,1.27,0,1.9,0,0,2.07,0,4.14,0,6.21-.49,0-.99,0-1.48,0,0-1.31,0-2.62,0-3.94-.35,1.31-.69,2.63-1.04,3.94-.49,0-.97,0-1.46,0-.37-1.37-.71-2.75-1.09-4.11,0,1.37,0,2.74,0,4.11h-1.34c0-2.07,0-4.14,0-6.21h0Z"/>
  <path class="cls-1" d="M18.6,7.52c.37,0,.73,0,1.1,0,0,3.72,0,7.45,0,11.17H6.86c-.15-.02-.31-.04-.44-.13-.24-.14-.4-.41-.39-.68,0-.34,0-.68,0-1.02.37-.23.74-.44,1.11-.67,3.82,0,7.65,0,11.47,0,0-2.89,0-5.78,0-8.67h0Z"/>
</svg>