<?xml version="1.0" encoding="UTF-8"?>
<svg id="Layer_1" data-name="Layer 1" xmlns="http://www.w3.org/2000/svg" viewBox="0 0 24 24">
  <defs>
    <style>
      .cls-1 {
        fill: #fff;
      }
    </style>
  </defs>
  <circle class="cls-1" cx="12.04" cy="12" r="8.48"/>
  <path d="M12.04,3.35C7.3,3.35,3.47,7.22,3.47,12s3.84,8.65,8.57,8.65,8.57-3.87,8.57-8.65S16.77,3.35,12.04,3.35h0ZM12.04,3.73c2.19,0,4.25.86,5.79,2.42,1.54,1.55,2.41,3.66,2.4,5.85,0,2.21-.85,4.28-2.4,5.85-1.53,1.55-3.62,2.42-5.79,2.42-2.18,0-4.27-.87-5.79-2.42-1.54-1.55-2.41-3.66-2.4-5.85,0-2.21.86-4.28,2.4-5.85,1.53-1.55,3.62-2.43,5.8-2.42h0ZM11.61,6.78c-1.4.37-2.69,1.09-4.41,3.07s-1.4,3.61-1.4,3.61c0,0,.48-1.12,1.62-2.31.54-.56.95-.75,1.22-.75.25-.01.46.19.46.43v4.01c0,.4-.26.48-.49.48-.2,0-.39-.07-.39-.07,1.17,1.71,3.98,1.94,3.98,1.94l1.23-1.32.03.03,1.13.96c2.07-1.23,3.06-3.5,3.06-3.5-.92.97-1.51,1.2-1.86,1.2-.31,0-.43-.18-.43-.18-.02-.08-.04-1.31-.06-2.53-.01-1.26,0-2.53.06-2.53.36-.67,1.49-2.02,1.49-2.02-2.12.42-3.28,1.81-3.28,1.81-.34-.27-1.04-.23-1.04-.23.33.18.65.7.65,1.14v4.27s-.71.63-1.26.63c-.33,0-.53-.18-.64-.32-.04-.06-.08-.12-.11-.19v-5.27c-.08.06-.17.09-.26.09-.12,0-.24-.06-.32-.23-.06-.13-.1-.32-.1-.61,0-.97,1.1-1.62,1.1-1.62h0Z"/>
</svg>