<?xml version="1.0" encoding="UTF-8"?>
<svg id="Layer_2" data-name="Layer 2" xmlns="http://www.w3.org/2000/svg" xmlns:xlink="http://www.w3.org/1999/xlink" viewBox="0 0 55.88 52.07">
  <defs>
    <style>
      .cls-1 {
        fill: url(#radial-gradient);
      }
    </style>
    <radialGradient id="radial-gradient" cx="27.94" cy="26.04" fx="27.94" fy="26.04" r="27.01" gradientUnits="userSpaceOnUse">
      <stop offset=".24" stop-color="#49c6e4"/>
      <stop offset=".35" stop-color="#4bbae5"/>
      <stop offset=".53" stop-color="#539be9"/>
      <stop offset=".77" stop-color="#5f6aef"/>
      <stop offset="1" stop-color="#6c36f6"/>
    </radialGradient>
  </defs>
  <g id="Geometrica-Shapes">
    <g id="shape257">
      <path class="cls-1" d="M27.88,52.07C13.35,52.07,1.36,40.94.01,26.75c-.14-1.44,1.03-2.67,2.48-2.67h0c1.3,0,2.34,1,2.47,2.29,1.15,11.63,10.99,20.74,22.92,20.74,12.7,0,23.04-10.33,23.04-23.03,0-10.54-8.57-19.11-19.11-19.11S13.18,13.07,12.72,23.2c-.35,7.68,4.8,14.45,12.37,15.8,8.7,1.56,16.41-4.35,17.76-12.39,1.16-6.86-3.64-13.51-10.59-13.79-5.91-.23-10.87,4.11-11.61,9.76-.57,4.31,2.33,8.47,6.67,8.8,4.06.31,7.49-2.71,7.87-6.6.2-2.1-1.26-4.11-3.36-4.11-1.37,0-2.55.8-3.09,1.96-.41.88-1.28,1.45-2.25,1.45h0c-1.77,0-3.03-1.82-2.3-3.43,1.36-3.01,4.44-5.08,7.98-4.94,5.26.21,8.76,5.35,7.83,10.53-1.05,5.87-6.27,10.31-12.47,10.12-7.89-.23-13.22-7.95-11.57-15.67,1.57-7.39,8.2-12.94,16.08-12.84,10.3.13,17.62,9.98,15.64,20.09-2,10.22-11.75,17.7-22.86,16.05-10.07-1.5-17.24-10.15-17.06-20.33C7.96,10.58,18.67,0,31.81,0s24.07,10.8,24.07,24.07c0,15.44-12.56,28-28,28Z"/>
    </g>
  </g>
</svg>