<?xml version="1.0" encoding="UTF-8"?>
<svg id="Layer_1" xmlns="http://www.w3.org/2000/svg" xmlns:xlink="http://www.w3.org/1999/xlink" version="1.1" viewBox="0 0 24 24">
  <!-- Generator: Adobe Illustrator 30.1.0, SVG Export Plug-In . SVG Version: 2.1.1 Build 136)  -->
  <defs>
    <style>
      .st0 {
        fill: url(#linear-gradient);
      }

      .st1 {
        fill: #72240e;
      }
    </style>
    <linearGradient id="linear-gradient" x1="6.6" y1="11.3" x2="17.2" y2="11.3" gradientUnits="userSpaceOnUse">
      <stop offset="0" stop-color="#fb5c21"/>
      <stop offset="1" stop-color="#fccc35"/>
    </linearGradient>
  </defs>
  <path class="st1" d="M15.5,17.9l-2.9,1.7c-.3.2-.7.2-1.1,0l-5.8-3.3c-.3-.2-.5-.4-.6-.8v-7c0-.4.2-.7.6-.8l5.8-3.4c.4-.2.7-.2,1.1,0l2.9,1.7,3.1,1.8c.2.1.3.5.3.7v6.9c0,.2-.1.6-.3.7l-3.1,1.8ZM14.2,8c.1-.7-.4-1.3-1.1-1.4s-.6.3-.8.5-.2.7,0,1c.5.5,1.7.3,1.8,0ZM15.3,9.9c.3-.2.6-.5.8-.8s0-.1,0-.1,0,0-.1,0c-.3.2-.6.3-1,.3-.7.2-1.6-.2-2.2-.5s-.7-.3-1-.4c-.8-.3-1.6-.3-2.5,0s-1.1.5-1.5,1.1-.7,1.2-.3,1.2.8-.6.9-.8.2-.4.6-.5.8,0,1.1,0c1.4.3,2.1,1.3,3.3,1.2s1.2-.3,1.8-.7ZM7.5,15s-.1-.1,0-.2c.5-.6,1.1-1,1.9-1.1,1.3-.3,2.6-.2,3.9.1s3,.7,3.6,2.1c.4-.3.4-.8.3-1.2s-.4-.8-.8-1.1c-1.1-1-2.6-1.5-4.2-1.6.1-.3.9-1.1.8-1.2-.1-.2-.8,0-1.2.4s-.4.3-.5.5c-.2.3-.4.3-.7.3-.6,0-1.2.3-1.8.5s-.4.2-.6.4c-.8.4-1.4,1.1-1.6,2s0,.7.3.9c1,.5,3.3-1,4-1.8,0,0,0-.1-.1,0s0,0-.1.1c-.5.3-2.7,1.2-3.1,1Z"/>
  <path class="st0" d="M7.5,15c.4.2,2.6-.7,3.1-1s0,0,.1-.1.1,0,.1,0c-.7.8-3,2.2-4,1.8s-.4-.6-.3-.9c.2-.9.8-1.6,1.6-2s.4-.3.6-.4c.6-.2,1.2-.4,1.8-.5s.5,0,.7-.3.3-.3.5-.5c.4-.4,1.1-.6,1.2-.4s-.7.9-.8,1.2c1.6,0,3,.6,4.2,1.6s.6.7.8,1.1,0,.9-.3,1.2c-.6-1.4-2.3-1.8-3.6-2.1s-2.6-.4-3.9-.1-1.4.5-1.9,1.1,0,.2,0,.2ZM16.1,9.1s0-.1,0-.1,0,0-.1,0c-.3.2-.6.3-1,.3-.7.2-1.6-.2-2.2-.5s-.7-.3-1-.4c-.8-.3-1.6-.3-2.5,0s-1.1.5-1.5,1.1-.7,1.2-.3,1.2.8-.6.9-.8.2-.4.6-.5.8,0,1.1,0c1.4.3,2.1,1.3,3.3,1.2s1.2-.3,1.8-.7.6-.5.8-.8ZM13.1,6.6c-.4,0-.6.3-.8.5s-.2.7,0,1c.5.5,1.7.3,1.8,0,.1-.7-.4-1.3-1.1-1.4Z"/>
</svg>